{"title":"Jessie J ft. 2 Chainz - Burnin' Up (2014.Pop)","uid":11177505,"size":98785302,"categoryP":"video","categoryS":"music_videos","magnet":"?xt=urn:btih:1f7a229b1ef36b6f61b02c6227ffe04e07ba5f19&amp;dn=Jessie+J+ft.+2+Chainz+-+Burnin%27+Up+%282014.Pop%29&amp;tr=udp%3A%2F%2Ftracker.openbittorrent.com%3A80&amp;tr=udp%3A%2F%2Fopen.demonii.com%3A1337&amp;tr=udp%3A%2F%2Ftracker.coppersurfer.tk%3A6969&amp;tr=udp%3A%2F%2Fexodus.desync.com%3A6969","seeders":10,"leechers":0,"uploader":"MeRaDil","files":-1,"time":1412806365,"description":"JESSIE J ft.2 CHAINZ - BURNIN' UP\n\n\n\nMPEG4 MUSIC VID\n\n &lt;a href=&quot;\nhttp://gifyu.com/images/BurninUp.png&quot; rel=&quot;nofollow&quot; target=&quot;_NEW&quot;&gt;\nhttp://gifyu.com/images/BurninUp.png&lt;/a&gt;\n\n\nGeneral\nComplete name                            : Jessie J ft. 2 Chainz - Burnin' Up\nFormat                                   : MPEG-4\nFormat profile                           : Base Media\nCodec ID                                 : isom\nFile size                                : 94.2 MiB\nDuration                                 : 3mn 49s\nOverall bit rate                         : 3 444 Kbps\nMusicVid name                            : Burnin' Up\nMusicVid name/More                       : Jessie J &amp; 2 Chainz\nAlbum                                    : Sweet Talker\nPerformer                                : Jessie J ft. 2 Chainz\nGenre                                    : Pop\nContentType                              : Music Video\nRecorded date                            : 2014\nCopyright                                : Jessie J\nCover                                    : Yes\nRating                                   : ***\nMake                                     : MeRaDil\noday                                     : 08-10-2014 UK\nartist url                               : http://jessiejofficial.com\nlabl                                     : Lava . Republic\nrelease                                  : UK . october 8 . 2014\nPart_ID                                  : Burnin' Up\n\nVideo\nID                                       : 1\nFormat                                   : AVC\nFormat/Info                              : Advanced Video Codec\nFormat profile                           : &lt;a class=&quot;__cf_email__&quot; href=&quot;/cdn-cgi/l/email-protection&quot; data-cfemail=&quot;2860414f4068641c0618&quot;&gt;[email&amp;#160;protected]&lt;/a&gt;&lt;script cf-hash='f9e31' type=&quot;text/javascript&quot;&gt;\n/* &lt;![CDATA[ */!function(){try{var t=&quot;currentScript&quot;in document?document.currentScript:function(){for(var t=document.getElementsByTagName(&quot;script&quot;),e=t.length;e--;)if(t[e].getAttribute(&quot;cf-hash&quot;))return t[e]}();if(t&amp;&amp;t.previousSibling){var e,r,n,i,c=t.previousSibling,a=c.getAttribute(&quot;data-cfemail&quot;);if(a){for(e=&quot;&quot;,r=parseInt(a.substr(0,2),16),n=2;a.length-n;n+=2)i=parseInt(a.substr(n,2),16)^r,e+=String.fromCharCode(i);e=document.createTextNode(e),c.parentNode.replaceChild(e,c)}}}catch(u){}}();/* ]]&gt; */&lt;/script&gt;\nFormat settings, CABAC                   : Yes\nFormat settings, ReFrames                : 2 frames\nCodec ID                                 : avc1\nCodec ID/Info                            : Advanced Video Coding\nDuration                                 : 3mn 49s\nBit rate                                 : 3 181 Kbps\nWidth                                    : 1 920 pixels\nHeight                                   : 1 080 pixels\nDisplay aspect ratio                     : 16:9\nFrame rate mode                          : Variable\nFrame rate                               : 23.976 fps\nMinimum frame rate                       : 23.974 fps\nMaximum frame rate                       : 23.981 fps\nColor space                              : YUV\nChroma subsampling                       : 4:2:0\nBit depth                                : 8 bits\nScan type                                : Progressive\nBits/(Pixel*Frame)                       : 0.064\nStream size                              : 87.0 MiB (92%)\n\nAudio\nID                                       : 2\nFormat                                   : AAC\nFormat/Info                              : Advanced Audio Codec\nFormat profile                           : LC\nCodec ID                                 : 40\nDuration                                 : 3mn 49s\nBit rate mode                            : Constant\nBit rate                                 : 256 Kbps\nChannel(s)                               : 2 channels\nChannel positions                        : Front: L R\nSampling rate                            : 44.1 KHz\nCompression mode                         : Lossy\nStream size                              : 7.00 MiB (7%)\n &lt;a href=&quot;\nhttps://thepiratebay.se/user/MeRaDil&quot; rel=&quot;nofollow&quot; target=&quot;_NEW&quot;&gt;\nhttps://thepiratebay.se/user/MeRaDil&lt;/a&gt;\n\n:)","torrent":{"xt":"urn:btih:1f7a229b1ef36b6f61b02c6227ffe04e07ba5f19","amp;dn":"Jessie+J+ft.+2+Chainz+-+Burnin%27+Up+%282014.Pop%29","amp;tr":["udp%3A%2F%2Ftracker.openbittorrent.com%3A80","udp%3A%2F%2Fopen.demonii.com%3A1337","udp%3A%2F%2Ftracker.coppersurfer.tk%3A6969","udp%3A%2F%2Fexodus.desync.com%3A6969"],"infoHash":"1f7a229b1ef36b6f61b02c6227ffe04e07ba5f19","infoHashBuffer":{"type":"Buffer","data":[31,122,34,155,30,243,107,111,97,176,44,98,39,255,224,78,7,186,95,25]},"announce":[],"urlList":[]}}